<svg width="25" height="32" viewBox="0 0 25 32" fill="none" xmlns="http://www.w3.org/2000/svg">
<path fill-rule="evenodd" clip-rule="evenodd" d="M12.3031 32C13.5514 32 19.496 24.5347 20.9618 22.1566C23.215 18.5011 24.6061 16.3386 24.6061 12.3031C24.6061 5.50827 19.0979 0 12.3031 0C5.50827 0 0 5.50827 0 12.3031C0 16.3596 1.28902 18.5077 3.53473 22.1566C5.09995 24.6999 11.0547 32 12.3031 32ZM12.3031 18.4546C15.7005 18.4546 18.4546 15.7005 18.4546 12.3031C18.4546 8.90566 15.7005 6.15153 12.3031 6.15153C8.90568 6.15153 6.15155 8.90566 6.15155 12.3031C6.15155 15.7005 8.90568 18.4546 12.3031 18.4546Z" fill="#4AB858"/>
</svg>
