<svg width="20" height="20" viewBox="0 0 20 20" fill="none" xmlns="http://www.w3.org/2000/svg">
<path d="M19.9392 7.54396C19.7915 7.07067 19.3998 6.7255 18.9292 6.65359L13.5352 5.83513L11.1223 0.729555C10.9108 0.282408 10.4766 0 9.99975 0C9.52293 0 9.08866 0.282408 8.87716 0.729555L6.46552 5.83513L1.07156 6.65359C0.59974 6.7255 0.208021 7.07067 0.0615951 7.54396C-0.0860818 8.01726 0.0365651 8.53631 0.378225 8.88409L4.28165 12.8587L3.36055 18.4716C3.28045 18.9619 3.47318 19.4574 3.85864 19.7503C4.07515 19.9163 4.33296 20 4.59327 20C4.79226 20 4.9925 19.9503 5.17522 19.8496L9.99975 17.1995L14.8243 19.8496C15.007 19.9503 15.2072 20 15.4062 20C15.6653 20 15.9244 19.9163 16.1421 19.7503C16.5276 19.4574 16.7203 18.9619 16.6402 18.4716L15.7191 12.8587L19.6225 8.88409C19.9629 8.53762 20.0856 8.01726 19.9392 7.54396Z" fill="#FFCC00"/>
</svg>
